<svg width="25" height="24" viewBox="0 0 25 24" fill="none" xmlns="http://www.w3.org/2000/svg">
<path d="M7.43778 10.79C8.91893 13.62 11.3052 15.93 14.2161 17.38L16.4789 15.18C16.7566 14.91 17.1681 14.82 17.5281 14.94C18.6801 15.31 19.9246 15.51 21.2001 15.51C21.7658 15.51 22.2286 15.96 22.2286 16.51V20C22.2286 20.55 21.7658 21 21.2001 21C11.5418 21 3.71436 13.39 3.71436 4C3.71436 3.45 4.17721 3 4.74293 3H8.34293C8.90864 3 9.3715 3.45 9.3715 4C9.3715 5.25 9.57721 6.45 9.95778 7.57C10.0709 7.92 9.98864 8.31 9.70064 8.59L7.43778 10.79Z" fill="#A1613B"/>
</svg>
